<svg width="231" height="49" viewBox="0 0 231 49" fill="none" xmlns="http://www.w3.org/2000/svg">
<g clip-path="url(#clip0_2:37)">
<path d="M10.8778 22.6053L16.7445 0H26.7738L17.2376 22.6053H10.8778Z" fill="#2E0B92"/>
<path d="M22.6837 22.6053L28.5432 0H38.5725L29.0073 22.6053H22.6837Z" fill="#2E0B92"/>
<path d="M4.5469 49C1.7767 46.3598 0 41.7558 0 36.6209C0 31.486 1.7767 26.9111 4.5469 24.2491H9.24609V24.7291C6.29154 27.9923 4.65467 32.2421 4.65467 36.65C4.65467 41.0579 6.29154 45.3077 9.24609 48.5709V49.0145L4.5469 49Z" fill="#2E0B92"/>
<path d="M31.1176 49V48.5563C34.0676 45.2909 35.7015 41.0419 35.7015 36.6354C35.7015 32.229 34.0676 27.98 31.1176 24.7146V24.2491H35.8168C38.5798 26.8893 40.3565 31.5223 40.3565 36.6136C40.3565 41.7049 38.5798 46.3525 35.8168 48.9782L31.1176 49Z" fill="#2E0B92"/>
<path d="M18.5574 34.6571C18.5574 32.9115 19.609 31.8351 20.9505 31.8351C22.2921 31.8351 23.3872 32.9115 23.3872 34.6571C23.3872 36.4027 22.3139 37.4501 20.9505 37.4501C19.5872 37.4501 18.5574 36.3663 18.5574 34.6571ZM27.2596 34.6571C27.2596 32.9115 28.3112 31.8351 29.6527 31.8351C30.9943 31.8351 32.0894 32.9115 32.0894 34.6571C32.0894 36.4027 31.0088 37.4501 29.6527 37.4501C28.2967 37.4501 27.2524 36.3663 27.2524 34.6571H27.2596Z" fill="#2E0B92"/>
<path d="M149.83 26.6711C154.043 26.6711 156.052 29.0131 156.052 31.9515C156.08 33.1815 155.663 34.3801 154.877 35.3254C154.092 36.2707 152.992 36.8989 151.781 37.0937L156.284 44.6215H153.478L149.214 37.2755H146.386V44.6215H144.05V26.6711H149.83ZM149.83 28.6058H146.386V35.4063H149.83C152.477 35.4063 153.637 33.9516 153.637 31.9515C153.637 29.9513 152.506 28.6058 149.83 28.6058Z" fill="#2E0B92"/>
<path d="M171.296 40.643H163.478L162.028 44.636H159.54L166.067 26.7729H168.765L175.212 44.636H172.746L171.296 40.643ZM167.387 29.6604L164.145 38.7301H170.621L167.387 29.6604Z" fill="#2E0B92"/>
<path d="M185.741 44.636H179.055V26.6711H185.48C189.258 26.6711 191.166 28.7294 191.166 31.2314C191.184 32.177 190.885 33.1013 190.315 33.8549C189.745 34.6085 188.939 35.1474 188.026 35.3845C189.036 35.5979 189.942 36.1559 190.588 36.9634C191.235 37.771 191.582 38.7783 191.572 39.8139C191.572 42.5195 189.44 44.636 185.741 44.636ZM185.277 28.6349H181.397V34.4535H185.328C187.504 34.4535 188.773 33.3698 188.773 31.5442C188.773 29.7186 187.562 28.6058 185.277 28.6058V28.6349ZM185.458 36.3663H181.397V42.7086H185.531C187.844 42.7086 189.237 41.5522 189.237 39.5884C189.237 37.6246 187.743 36.3663 185.458 36.3663Z" fill="#2E0B92"/>
<path d="M202.522 44.636H195.843V26.6711H202.268C206.046 26.6711 207.946 28.7294 207.946 31.2314C207.964 32.1757 207.665 33.0986 207.097 33.8518C206.529 34.605 205.725 35.1448 204.814 35.3845C205.824 35.5979 206.73 36.1559 207.376 36.9634C208.023 37.771 208.37 38.7783 208.36 39.8139C208.36 42.5195 206.22 44.636 202.522 44.636ZM202.058 28.6349H198.178V34.4535H202.109C204.284 34.4535 205.553 33.3698 205.553 31.5442C205.553 29.7186 204.349 28.6058 202.058 28.6058V28.6349ZM202.239 36.3663H198.178V42.7086H202.326C204.64 42.7086 206.025 41.5522 206.025 39.5884C206.025 37.6246 204.502 36.3663 202.239 36.3663Z" fill="#2E0B92"/>
<path d="M212.624 26.6711H214.966V44.636H212.624V26.6711Z" fill="#2E0B92"/>
<path d="M218.875 26.6711H231V28.5767H226.12V44.636H223.784V28.5767H218.875V26.6711Z" fill="#2E0B92"/>
<path d="M59.6101 44.767C55.7884 44.767 52.8006 42.8614 52.6773 39.2538H57.2895C57.2909 39.533 57.3492 39.809 57.461 40.0647C57.5728 40.3204 57.7357 40.5504 57.9395 40.7406C58.1434 40.9307 58.3839 41.0769 58.6463 41.1702C58.9087 41.2635 59.1873 41.3019 59.4651 41.2831C60.7341 41.2831 61.5391 40.6503 61.5391 39.6102C61.5391 36.3081 52.6556 38.0828 52.7063 31.7624C52.7063 28.3803 55.462 26.5038 59.1895 26.5038C63.062 26.5038 65.6726 28.4312 65.8467 31.8351H61.1837C61.1746 31.5768 61.1138 31.3229 61.0048 31.0886C60.8959 30.8543 60.7411 30.6444 60.5496 30.4714C60.3581 30.2984 60.1339 30.1657 59.8903 30.0814C59.6467 29.997 59.3886 29.9627 59.1315 29.9804C58.8992 29.9398 58.6608 29.9521 58.4339 30.0163C58.207 30.0806 57.9974 30.1951 57.8206 30.3515C57.6437 30.508 57.5042 30.7022 57.4123 30.92C57.3204 31.1377 57.2784 31.3734 57.2895 31.6096C57.2895 34.708 66.1005 33.3116 66.1005 39.2756C66.1005 42.2795 63.7654 44.767 59.6101 44.767Z" fill="#2E0B92"/>
<path d="M76.9637 26.5547C81.1916 26.5547 84.3824 28.9403 85.3976 32.8024H80.6404C80.3105 32.0995 79.7804 31.5103 79.1171 31.109C78.4537 30.7078 77.6868 30.5125 76.913 30.5477C74.2516 30.5477 72.4313 32.526 72.4313 35.639C72.4313 38.752 74.2516 40.7739 76.913 40.7739C77.6906 40.8051 78.46 40.604 79.1236 40.1961C79.7872 39.7882 80.3151 39.192 80.6404 38.4829H85.3976C84.3824 42.345 81.1916 44.7088 76.9637 44.7088C71.7207 44.716 68.0222 40.9776 68.0222 35.639C68.0222 30.3004 71.7207 26.5547 76.9637 26.5547Z" fill="#2E0B92"/>
<path d="M95.3326 26.7583C99.6837 26.7583 101.859 29.2676 101.859 32.3733C101.884 33.5558 101.504 34.7112 100.784 35.6478C100.064 36.5844 99.0463 37.246 97.8998 37.5228L101.997 44.5851H97.1093L93.4182 37.8573H92.3884V44.5851H88.0373V26.7583H95.3326ZM95.0788 30.395H92.3884V34.8099H95.0788C96.696 34.8099 97.4574 33.9734 97.4574 32.577C97.4574 31.1805 96.696 30.3659 95.0788 30.3659V30.395Z" fill="#2E0B92"/>
<path d="M104.571 26.7583H108.923V44.5851H104.571V26.7583Z" fill="#2E0B92"/>
<path d="M120.33 44.5851H112.048V26.7583H120.025C123.651 26.7583 125.827 28.5621 125.827 31.3769C125.861 32.2979 125.581 33.2031 125.032 33.9425C124.483 34.6819 123.699 35.2112 122.81 35.4426C123.788 35.6484 124.665 36.1891 125.289 36.9721C125.914 37.755 126.247 38.7313 126.233 39.7339C126.233 42.6795 124.079 44.5851 120.33 44.5851ZM119.213 30.235H116.377V33.9734H119.213C120.663 33.9734 121.389 33.3334 121.389 32.1187C121.389 30.9041 120.634 30.235 119.213 30.235ZM119.518 37.1446H116.377V41.0794H119.568C121.019 41.0794 121.845 40.4248 121.845 39.152C121.845 37.8792 120.961 37.1446 119.518 37.1446Z" fill="#2E0B92"/>
<path d="M139.627 30.235H133.1V33.8716H138.902V37.2246H133.1V41.1376H139.627V44.5851H128.749V26.7583H139.627V30.235Z" fill="#2E0B92"/>
</g>
<defs>
<clipPath id="clip0_2:37">
<rect width="231" height="49" fill="white"/>
</clipPath>
</defs>
</svg>
