<svg width="635" height="487" viewBox="0 0 635 487" fill="none" xmlns="http://www.w3.org/2000/svg">
<g filter="url(#filter0_d_2:87)">
<path d="M775.759 6H41.2413C32.2715 6 25 12.9001 25 21.4118V445.588C25 454.1 32.2715 461 41.2413 461H775.759C784.729 461 792 454.1 792 445.588V21.4118C792 12.9001 784.729 6 775.759 6Z" fill="#F9FAFC"/>
</g>
<path d="M40.9979 6H776.002C780.245 6 784.314 7.59941 787.314 10.4464C790.315 13.2934 792 17.1547 792 21.1809V61.5921H25V21.1809C25 17.1547 26.6855 13.2934 29.6857 10.4464C32.6859 7.59941 36.755 6 40.9979 6V6Z" fill="#2E0B92"/>
<path d="M344.986 82.1184H60.1234C51.4273 82.1184 44.3778 88.8079 44.3778 97.0599V427.243C44.3778 435.495 51.4273 442.184 60.1234 442.184H344.986C353.682 442.184 360.732 435.495 360.732 427.243V97.0599C360.732 88.8079 353.682 82.1184 344.986 82.1184Z" fill="#FFDA93"/>
<path d="M753.272 82.1184H399.911C391.215 82.1184 384.165 88.8079 384.165 97.0599V127.901C384.165 136.153 391.215 142.842 399.911 142.842H753.272C761.968 142.842 769.017 136.153 769.017 127.901V97.0599C769.017 88.8079 761.968 82.1184 753.272 82.1184Z" fill="#FFDA93"/>
<path d="M753.272 156.954H399.911C391.215 156.954 384.165 163.643 384.165 171.895V202.736C384.165 210.988 391.215 217.678 399.911 217.678H753.272C761.968 217.678 769.017 210.988 769.017 202.736V171.895C769.017 163.643 761.968 156.954 753.272 156.954Z" fill="#FFDA93"/>
<path d="M753.272 231.789H399.911C391.215 231.789 384.165 238.479 384.165 246.731V277.572C384.165 285.824 391.215 292.513 399.911 292.513H753.272C761.968 292.513 769.017 285.824 769.017 277.572V246.731C769.017 238.479 761.968 231.789 753.272 231.789Z" fill="#FFDA93"/>
<path d="M753.272 381.461H399.911C391.215 381.461 384.165 388.15 384.165 396.402V427.243C384.165 435.495 391.215 442.184 399.911 442.184H753.272C761.968 442.184 769.017 435.495 769.017 427.243V396.402C769.017 388.15 761.968 381.461 753.272 381.461Z" fill="#FFDA93"/>
<path d="M753.272 306.625H399.911C391.215 306.625 384.165 313.315 384.165 321.566V352.407C384.165 360.659 391.215 367.349 399.911 367.349H753.272C761.968 367.349 769.017 360.659 769.017 352.407V321.566C769.017 313.315 761.968 306.625 753.272 306.625Z" fill="#FFDA93"/>
<path d="M335.649 93.0144H70.1367C64.2979 93.0144 59.5646 97.506 59.5646 103.047V251.409C59.5646 256.95 64.2979 261.441 70.1367 261.441H335.649C341.487 261.441 346.221 256.95 346.221 251.409V103.047C346.221 97.506 341.487 93.0144 335.649 93.0144Z" fill="#FFCF74"/>
<path d="M335.288 307.053H70.2719C64.4331 307.053 59.6998 311.544 59.6998 317.085V420.341C59.6998 425.881 64.4331 430.373 70.2719 430.373H335.288C341.127 430.373 345.86 425.881 345.86 420.341V317.085C345.86 311.544 341.127 307.053 335.288 307.053Z" fill="#FFCF74"/>
<path d="M213.532 18.829H47.3701C44.2242 18.829 41.6739 21.249 41.6739 24.2342V44.2132C41.6739 47.1984 44.2242 49.6185 47.3701 49.6185H213.532C216.678 49.6185 219.229 47.1984 219.229 44.2132V24.2342C219.229 21.249 216.678 18.829 213.532 18.829Z" fill="#72CEC1"/>
<path d="M248.971 269.421H156.138C147.178 269.421 139.915 276.314 139.915 284.816C139.915 293.318 147.178 300.211 156.138 300.211H248.971C257.931 300.211 265.194 293.318 265.194 284.816C265.194 276.314 257.931 269.421 248.971 269.421Z" fill="#FF7F5C"/>
<path d="M214.56 175.624C214.791 175.759 214.982 175.948 215.114 176.172C215.247 176.397 215.316 176.65 215.316 176.907C215.316 177.165 215.247 177.418 215.114 177.642C214.982 177.867 214.791 178.056 214.56 178.19L204.564 183.664L194.569 189.138C194.328 189.27 194.055 189.339 193.777 189.339C193.499 189.339 193.226 189.27 192.984 189.138C192.743 189.007 192.543 188.817 192.404 188.589C192.264 188.361 192.19 188.102 192.19 187.838V165.934C192.19 165.67 192.264 165.411 192.404 165.183C192.543 164.955 192.743 164.765 192.984 164.633C193.226 164.502 193.499 164.432 193.777 164.433C194.055 164.433 194.328 164.502 194.569 164.634L204.564 170.108L214.56 175.624Z" fill="#FF7F5C"/>
<defs>
<filter id="filter0_d_2:87" x="0" y="0" width="799" height="487" filterUnits="userSpaceOnUse" color-interpolation-filters="sRGB">
<feFlood flood-opacity="0" result="BackgroundImageFix"/>
<feColorMatrix in="SourceAlpha" type="matrix" values="0 0 0 0 0 0 0 0 0 0 0 0 0 0 0 0 0 0 127 0" result="hardAlpha"/>
<feOffset dx="-9" dy="10"/>
<feGaussianBlur stdDeviation="8"/>
<feComposite in2="hardAlpha" operator="out"/>
<feColorMatrix type="matrix" values="0 0 0 0 0 0 0 0 0 0 0 0 0 0 0 0 0 0 0.25 0"/>
<feBlend mode="normal" in2="BackgroundImageFix" result="effect1_dropShadow_2:87"/>
<feBlend mode="normal" in="SourceGraphic" in2="effect1_dropShadow_2:87" result="shape"/>
</filter>
</defs>
</svg>
